<?xml version="1.0" encoding="utf-8" standalone="no"?>
<!DOCTYPE svg PUBLIC "-//W3C//DTD SVG 1.1//EN"
  "http://www.w3.org/Graphics/SVG/1.1/DTD/svg11.dtd">
<svg xmlns:xlink="http://www.w3.org/1999/xlink" width="576pt" height="432pt" viewBox="0 0 576 432" xmlns="http://www.w3.org/2000/svg" version="1.1">
 <metadata>
  <rdf:RDF xmlns:dc="http://purl.org/dc/elements/1.1/" xmlns:cc="http://creativecommons.org/ns#" xmlns:rdf="http://www.w3.org/1999/02/22-rdf-syntax-ns#">
   <cc:Work>
    <dc:type rdf:resource="http://purl.org/dc/dcmitype/StillImage"/>
    <dc:date>2022-05-12T00:17:43.442472</dc:date>
    <dc:format>image/svg+xml</dc:format>
    <dc:creator>
     <cc:Agent>
      <dc:title>Matplotlib v3.5.1, https://matplotlib.org/</dc:title>
     </cc:Agent>
    </dc:creator>
   </cc:Work>
  </rdf:RDF>
 </metadata>
 <defs>
  <style type="text/css">*{stroke-linejoin: round; stroke-linecap: butt}</style>
 </defs>
 <g id="figure_1">
  <g id="patch_1">
   <path d="M 0 432 
L 576 432 
L 576 0 
L 0 0 
z
" style="fill: #ffffff"/>
  </g>
  <g id="axes_1">
   <g id="patch_2">
    <path d="M 72 384.48 
L 518.4 384.48 
L 518.4 51.84 
L 72 51.84 
z
" style="fill: #ffffff"/>
   </g>
   <g id="matplotlib.axis_1">
    <g id="xtick_1">
     <g id="line2d_1">
      <defs>
       <path id="m43068ffd6e" d="M 0 0 
L 0 3.5 
" style="stroke: #000000; stroke-width: 0.8"/>
      </defs>
      <g>
       <use xlink:href="#m43068ffd6e" x="92.290909" y="384.48" style="stroke: #000000; stroke-width: 0.8"/>
      </g>
     </g>
     <g id="text_1">
      <!-- 0.0 -->
      <g transform="translate(84.339347 399.078438)scale(0.1 -0.1)">
       <defs>
        <path id="DejaVuSans-30" d="M 2034 4250 
Q 1547 4250 1301 3770 
Q 1056 3291 1056 2328 
Q 1056 1369 1301 889 
Q 1547 409 2034 409 
Q 2525 409 2770 889 
Q 3016 1369 3016 2328 
Q 3016 3291 2770 3770 
Q 2525 4250 2034 4250 
z
M 2034 4750 
Q 2819 4750 3233 4129 
Q 3647 3509 3647 2328 
Q 3647 1150 3233 529 
Q 2819 -91 2034 -91 
Q 1250 -91 836 529 
Q 422 1150 422 2328 
Q 422 3509 836 4129 
Q 1250 4750 2034 4750 
z
" transform="scale(0.015625)"/>
        <path id="DejaVuSans-2e" d="M 684 794 
L 1344 794 
L 1344 0 
L 684 0 
L 684 794 
z
" transform="scale(0.015625)"/>
       </defs>
       <use xlink:href="#DejaVuSans-30"/>
       <use xlink:href="#DejaVuSans-2e" x="63.623047"/>
       <use xlink:href="#DejaVuSans-30" x="95.410156"/>
      </g>
     </g>
    </g>
    <g id="xtick_2">
     <g id="line2d_2">
      <g>
       <use xlink:href="#m43068ffd6e" x="173.454545" y="384.48" style="stroke: #000000; stroke-width: 0.8"/>
      </g>
     </g>
     <g id="text_2">
      <!-- 0.2 -->
      <g transform="translate(165.502983 399.078438)scale(0.1 -0.1)">
       <defs>
        <path id="DejaVuSans-32" d="M 1228 531 
L 3431 531 
L 3431 0 
L 469 0 
L 469 531 
Q 828 903 1448 1529 
Q 2069 2156 2228 2338 
Q 2531 2678 2651 2914 
Q 2772 3150 2772 3378 
Q 2772 3750 2511 3984 
Q 2250 4219 1831 4219 
Q 1534 4219 1204 4116 
Q 875 4013 500 3803 
L 500 4441 
Q 881 4594 1212 4672 
Q 1544 4750 1819 4750 
Q 2544 4750 2975 4387 
Q 3406 4025 3406 3419 
Q 3406 3131 3298 2873 
Q 3191 2616 2906 2266 
Q 2828 2175 2409 1742 
Q 1991 1309 1228 531 
z
" transform="scale(0.015625)"/>
       </defs>
       <use xlink:href="#DejaVuSans-30"/>
       <use xlink:href="#DejaVuSans-2e" x="63.623047"/>
       <use xlink:href="#DejaVuSans-32" x="95.410156"/>
      </g>
     </g>
    </g>
    <g id="xtick_3">
     <g id="line2d_3">
      <g>
       <use xlink:href="#m43068ffd6e" x="254.618182" y="384.48" style="stroke: #000000; stroke-width: 0.8"/>
      </g>
     </g>
     <g id="text_3">
      <!-- 0.4 -->
      <g transform="translate(246.666619 399.078438)scale(0.1 -0.1)">
       <defs>
        <path id="DejaVuSans-34" d="M 2419 4116 
L 825 1625 
L 2419 1625 
L 2419 4116 
z
M 2253 4666 
L 3047 4666 
L 3047 1625 
L 3713 1625 
L 3713 1100 
L 3047 1100 
L 3047 0 
L 2419 0 
L 2419 1100 
L 313 1100 
L 313 1709 
L 2253 4666 
z
" transform="scale(0.015625)"/>
       </defs>
       <use xlink:href="#DejaVuSans-30"/>
       <use xlink:href="#DejaVuSans-2e" x="63.623047"/>
       <use xlink:href="#DejaVuSans-34" x="95.410156"/>
      </g>
     </g>
    </g>
    <g id="xtick_4">
     <g id="line2d_4">
      <g>
       <use xlink:href="#m43068ffd6e" x="335.781818" y="384.48" style="stroke: #000000; stroke-width: 0.8"/>
      </g>
     </g>
     <g id="text_4">
      <!-- 0.6 -->
      <g transform="translate(327.830256 399.078438)scale(0.1 -0.1)">
       <defs>
        <path id="DejaVuSans-36" d="M 2113 2584 
Q 1688 2584 1439 2293 
Q 1191 2003 1191 1497 
Q 1191 994 1439 701 
Q 1688 409 2113 409 
Q 2538 409 2786 701 
Q 3034 994 3034 1497 
Q 3034 2003 2786 2293 
Q 2538 2584 2113 2584 
z
M 3366 4563 
L 3366 3988 
Q 3128 4100 2886 4159 
Q 2644 4219 2406 4219 
Q 1781 4219 1451 3797 
Q 1122 3375 1075 2522 
Q 1259 2794 1537 2939 
Q 1816 3084 2150 3084 
Q 2853 3084 3261 2657 
Q 3669 2231 3669 1497 
Q 3669 778 3244 343 
Q 2819 -91 2113 -91 
Q 1303 -91 875 529 
Q 447 1150 447 2328 
Q 447 3434 972 4092 
Q 1497 4750 2381 4750 
Q 2619 4750 2861 4703 
Q 3103 4656 3366 4563 
z
" transform="scale(0.015625)"/>
       </defs>
       <use xlink:href="#DejaVuSans-30"/>
       <use xlink:href="#DejaVuSans-2e" x="63.623047"/>
       <use xlink:href="#DejaVuSans-36" x="95.410156"/>
      </g>
     </g>
    </g>
    <g id="xtick_5">
     <g id="line2d_5">
      <g>
       <use xlink:href="#m43068ffd6e" x="416.945455" y="384.48" style="stroke: #000000; stroke-width: 0.8"/>
      </g>
     </g>
     <g id="text_5">
      <!-- 0.8 -->
      <g transform="translate(408.993892 399.078438)scale(0.1 -0.1)">
       <defs>
        <path id="DejaVuSans-38" d="M 2034 2216 
Q 1584 2216 1326 1975 
Q 1069 1734 1069 1313 
Q 1069 891 1326 650 
Q 1584 409 2034 409 
Q 2484 409 2743 651 
Q 3003 894 3003 1313 
Q 3003 1734 2745 1975 
Q 2488 2216 2034 2216 
z
M 1403 2484 
Q 997 2584 770 2862 
Q 544 3141 544 3541 
Q 544 4100 942 4425 
Q 1341 4750 2034 4750 
Q 2731 4750 3128 4425 
Q 3525 4100 3525 3541 
Q 3525 3141 3298 2862 
Q 3072 2584 2669 2484 
Q 3125 2378 3379 2068 
Q 3634 1759 3634 1313 
Q 3634 634 3220 271 
Q 2806 -91 2034 -91 
Q 1263 -91 848 271 
Q 434 634 434 1313 
Q 434 1759 690 2068 
Q 947 2378 1403 2484 
z
M 1172 3481 
Q 1172 3119 1398 2916 
Q 1625 2713 2034 2713 
Q 2441 2713 2670 2916 
Q 2900 3119 2900 3481 
Q 2900 3844 2670 4047 
Q 2441 4250 2034 4250 
Q 1625 4250 1398 4047 
Q 1172 3844 1172 3481 
z
" transform="scale(0.015625)"/>
       </defs>
       <use xlink:href="#DejaVuSans-30"/>
       <use xlink:href="#DejaVuSans-2e" x="63.623047"/>
       <use xlink:href="#DejaVuSans-38" x="95.410156"/>
      </g>
     </g>
    </g>
    <g id="xtick_6">
     <g id="line2d_6">
      <g>
       <use xlink:href="#m43068ffd6e" x="498.109091" y="384.48" style="stroke: #000000; stroke-width: 0.8"/>
      </g>
     </g>
     <g id="text_6">
      <!-- 1.0 -->
      <g transform="translate(490.157528 399.078438)scale(0.1 -0.1)">
       <defs>
        <path id="DejaVuSans-31" d="M 794 531 
L 1825 531 
L 1825 4091 
L 703 3866 
L 703 4441 
L 1819 4666 
L 2450 4666 
L 2450 531 
L 3481 531 
L 3481 0 
L 794 0 
L 794 531 
z
" transform="scale(0.015625)"/>
       </defs>
       <use xlink:href="#DejaVuSans-31"/>
       <use xlink:href="#DejaVuSans-2e" x="63.623047"/>
       <use xlink:href="#DejaVuSans-30" x="95.410156"/>
      </g>
     </g>
    </g>
    <g id="text_7">
     <!-- FPR - false positive rate -->
     <g transform="translate(236.011719 412.756563)scale(0.1 -0.1)">
      <defs>
       <path id="DejaVuSans-46" d="M 628 4666 
L 3309 4666 
L 3309 4134 
L 1259 4134 
L 1259 2759 
L 3109 2759 
L 3109 2228 
L 1259 2228 
L 1259 0 
L 628 0 
L 628 4666 
z
" transform="scale(0.015625)"/>
       <path id="DejaVuSans-50" d="M 1259 4147 
L 1259 2394 
L 2053 2394 
Q 2494 2394 2734 2622 
Q 2975 2850 2975 3272 
Q 2975 3691 2734 3919 
Q 2494 4147 2053 4147 
L 1259 4147 
z
M 628 4666 
L 2053 4666 
Q 2838 4666 3239 4311 
Q 3641 3956 3641 3272 
Q 3641 2581 3239 2228 
Q 2838 1875 2053 1875 
L 1259 1875 
L 1259 0 
L 628 0 
L 628 4666 
z
" transform="scale(0.015625)"/>
       <path id="DejaVuSans-52" d="M 2841 2188 
Q 3044 2119 3236 1894 
Q 3428 1669 3622 1275 
L 4263 0 
L 3584 0 
L 2988 1197 
Q 2756 1666 2539 1819 
Q 2322 1972 1947 1972 
L 1259 1972 
L 1259 0 
L 628 0 
L 628 4666 
L 2053 4666 
Q 2853 4666 3247 4331 
Q 3641 3997 3641 3322 
Q 3641 2881 3436 2590 
Q 3231 2300 2841 2188 
z
M 1259 4147 
L 1259 2491 
L 2053 2491 
Q 2509 2491 2742 2702 
Q 2975 2913 2975 3322 
Q 2975 3731 2742 3939 
Q 2509 4147 2053 4147 
L 1259 4147 
z
" transform="scale(0.015625)"/>
       <path id="DejaVuSans-20" transform="scale(0.015625)"/>
       <path id="DejaVuSans-2d" d="M 313 2009 
L 1997 2009 
L 1997 1497 
L 313 1497 
L 313 2009 
z
" transform="scale(0.015625)"/>
       <path id="DejaVuSans-66" d="M 2375 4863 
L 2375 4384 
L 1825 4384 
Q 1516 4384 1395 4259 
Q 1275 4134 1275 3809 
L 1275 3500 
L 2222 3500 
L 2222 3053 
L 1275 3053 
L 1275 0 
L 697 0 
L 697 3053 
L 147 3053 
L 147 3500 
L 697 3500 
L 697 3744 
Q 697 4328 969 4595 
Q 1241 4863 1831 4863 
L 2375 4863 
z
" transform="scale(0.015625)"/>
       <path id="DejaVuSans-61" d="M 2194 1759 
Q 1497 1759 1228 1600 
Q 959 1441 959 1056 
Q 959 750 1161 570 
Q 1363 391 1709 391 
Q 2188 391 2477 730 
Q 2766 1069 2766 1631 
L 2766 1759 
L 2194 1759 
z
M 3341 1997 
L 3341 0 
L 2766 0 
L 2766 531 
Q 2569 213 2275 61 
Q 1981 -91 1556 -91 
Q 1019 -91 701 211 
Q 384 513 384 1019 
Q 384 1609 779 1909 
Q 1175 2209 1959 2209 
L 2766 2209 
L 2766 2266 
Q 2766 2663 2505 2880 
Q 2244 3097 1772 3097 
Q 1472 3097 1187 3025 
Q 903 2953 641 2809 
L 641 3341 
Q 956 3463 1253 3523 
Q 1550 3584 1831 3584 
Q 2591 3584 2966 3190 
Q 3341 2797 3341 1997 
z
" transform="scale(0.015625)"/>
       <path id="DejaVuSans-6c" d="M 603 4863 
L 1178 4863 
L 1178 0 
L 603 0 
L 603 4863 
z
" transform="scale(0.015625)"/>
       <path id="DejaVuSans-73" d="M 2834 3397 
L 2834 2853 
Q 2591 2978 2328 3040 
Q 2066 3103 1784 3103 
Q 1356 3103 1142 2972 
Q 928 2841 928 2578 
Q 928 2378 1081 2264 
Q 1234 2150 1697 2047 
L 1894 2003 
Q 2506 1872 2764 1633 
Q 3022 1394 3022 966 
Q 3022 478 2636 193 
Q 2250 -91 1575 -91 
Q 1294 -91 989 -36 
Q 684 19 347 128 
L 347 722 
Q 666 556 975 473 
Q 1284 391 1588 391 
Q 1994 391 2212 530 
Q 2431 669 2431 922 
Q 2431 1156 2273 1281 
Q 2116 1406 1581 1522 
L 1381 1569 
Q 847 1681 609 1914 
Q 372 2147 372 2553 
Q 372 3047 722 3315 
Q 1072 3584 1716 3584 
Q 2034 3584 2315 3537 
Q 2597 3491 2834 3397 
z
" transform="scale(0.015625)"/>
       <path id="DejaVuSans-65" d="M 3597 1894 
L 3597 1613 
L 953 1613 
Q 991 1019 1311 708 
Q 1631 397 2203 397 
Q 2534 397 2845 478 
Q 3156 559 3463 722 
L 3463 178 
Q 3153 47 2828 -22 
Q 2503 -91 2169 -91 
Q 1331 -91 842 396 
Q 353 884 353 1716 
Q 353 2575 817 3079 
Q 1281 3584 2069 3584 
Q 2775 3584 3186 3129 
Q 3597 2675 3597 1894 
z
M 3022 2063 
Q 3016 2534 2758 2815 
Q 2500 3097 2075 3097 
Q 1594 3097 1305 2825 
Q 1016 2553 972 2059 
L 3022 2063 
z
" transform="scale(0.015625)"/>
       <path id="DejaVuSans-70" d="M 1159 525 
L 1159 -1331 
L 581 -1331 
L 581 3500 
L 1159 3500 
L 1159 2969 
Q 1341 3281 1617 3432 
Q 1894 3584 2278 3584 
Q 2916 3584 3314 3078 
Q 3713 2572 3713 1747 
Q 3713 922 3314 415 
Q 2916 -91 2278 -91 
Q 1894 -91 1617 61 
Q 1341 213 1159 525 
z
M 3116 1747 
Q 3116 2381 2855 2742 
Q 2594 3103 2138 3103 
Q 1681 3103 1420 2742 
Q 1159 2381 1159 1747 
Q 1159 1113 1420 752 
Q 1681 391 2138 391 
Q 2594 391 2855 752 
Q 3116 1113 3116 1747 
z
" transform="scale(0.015625)"/>
       <path id="DejaVuSans-6f" d="M 1959 3097 
Q 1497 3097 1228 2736 
Q 959 2375 959 1747 
Q 959 1119 1226 758 
Q 1494 397 1959 397 
Q 2419 397 2687 759 
Q 2956 1122 2956 1747 
Q 2956 2369 2687 2733 
Q 2419 3097 1959 3097 
z
M 1959 3584 
Q 2709 3584 3137 3096 
Q 3566 2609 3566 1747 
Q 3566 888 3137 398 
Q 2709 -91 1959 -91 
Q 1206 -91 779 398 
Q 353 888 353 1747 
Q 353 2609 779 3096 
Q 1206 3584 1959 3584 
z
" transform="scale(0.015625)"/>
       <path id="DejaVuSans-69" d="M 603 3500 
L 1178 3500 
L 1178 0 
L 603 0 
L 603 3500 
z
M 603 4863 
L 1178 4863 
L 1178 4134 
L 603 4134 
L 603 4863 
z
" transform="scale(0.015625)"/>
       <path id="DejaVuSans-74" d="M 1172 4494 
L 1172 3500 
L 2356 3500 
L 2356 3053 
L 1172 3053 
L 1172 1153 
Q 1172 725 1289 603 
Q 1406 481 1766 481 
L 2356 481 
L 2356 0 
L 1766 0 
Q 1100 0 847 248 
Q 594 497 594 1153 
L 594 3053 
L 172 3053 
L 172 3500 
L 594 3500 
L 594 4494 
L 1172 4494 
z
" transform="scale(0.015625)"/>
       <path id="DejaVuSans-76" d="M 191 3500 
L 800 3500 
L 1894 563 
L 2988 3500 
L 3597 3500 
L 2284 0 
L 1503 0 
L 191 3500 
z
" transform="scale(0.015625)"/>
       <path id="DejaVuSans-72" d="M 2631 2963 
Q 2534 3019 2420 3045 
Q 2306 3072 2169 3072 
Q 1681 3072 1420 2755 
Q 1159 2438 1159 1844 
L 1159 0 
L 581 0 
L 581 3500 
L 1159 3500 
L 1159 2956 
Q 1341 3275 1631 3429 
Q 1922 3584 2338 3584 
Q 2397 3584 2469 3576 
Q 2541 3569 2628 3553 
L 2631 2963 
z
" transform="scale(0.015625)"/>
      </defs>
      <use xlink:href="#DejaVuSans-46"/>
      <use xlink:href="#DejaVuSans-50" x="57.519531"/>
      <use xlink:href="#DejaVuSans-52" x="117.822266"/>
      <use xlink:href="#DejaVuSans-20" x="187.304688"/>
      <use xlink:href="#DejaVuSans-2d" x="219.091797"/>
      <use xlink:href="#DejaVuSans-20" x="255.175781"/>
      <use xlink:href="#DejaVuSans-66" x="286.962891"/>
      <use xlink:href="#DejaVuSans-61" x="322.167969"/>
      <use xlink:href="#DejaVuSans-6c" x="383.447266"/>
      <use xlink:href="#DejaVuSans-73" x="411.230469"/>
      <use xlink:href="#DejaVuSans-65" x="463.330078"/>
      <use xlink:href="#DejaVuSans-20" x="524.853516"/>
      <use xlink:href="#DejaVuSans-70" x="556.640625"/>
      <use xlink:href="#DejaVuSans-6f" x="620.117188"/>
      <use xlink:href="#DejaVuSans-73" x="681.298828"/>
      <use xlink:href="#DejaVuSans-69" x="733.398438"/>
      <use xlink:href="#DejaVuSans-74" x="761.181641"/>
      <use xlink:href="#DejaVuSans-69" x="800.390625"/>
      <use xlink:href="#DejaVuSans-76" x="828.173828"/>
      <use xlink:href="#DejaVuSans-65" x="887.353516"/>
      <use xlink:href="#DejaVuSans-20" x="948.876953"/>
      <use xlink:href="#DejaVuSans-72" x="980.664062"/>
      <use xlink:href="#DejaVuSans-61" x="1021.777344"/>
      <use xlink:href="#DejaVuSans-74" x="1083.056641"/>
      <use xlink:href="#DejaVuSans-65" x="1122.265625"/>
     </g>
    </g>
   </g>
   <g id="matplotlib.axis_2">
    <g id="ytick_1">
     <g id="line2d_7">
      <defs>
       <path id="m07e72aca4e" d="M 0 0 
L -3.5 0 
" style="stroke: #000000; stroke-width: 0.8"/>
      </defs>
      <g>
       <use xlink:href="#m07e72aca4e" x="72" y="369.36" style="stroke: #000000; stroke-width: 0.8"/>
      </g>
     </g>
     <g id="text_8">
      <!-- 0.0 -->
      <g transform="translate(49.096875 373.159219)scale(0.1 -0.1)">
       <use xlink:href="#DejaVuSans-30"/>
       <use xlink:href="#DejaVuSans-2e" x="63.623047"/>
       <use xlink:href="#DejaVuSans-30" x="95.410156"/>
      </g>
     </g>
    </g>
    <g id="ytick_2">
     <g id="line2d_8">
      <g>
       <use xlink:href="#m07e72aca4e" x="72" y="308.88" style="stroke: #000000; stroke-width: 0.8"/>
      </g>
     </g>
     <g id="text_9">
      <!-- 0.2 -->
      <g transform="translate(49.096875 312.679219)scale(0.1 -0.1)">
       <use xlink:href="#DejaVuSans-30"/>
       <use xlink:href="#DejaVuSans-2e" x="63.623047"/>
       <use xlink:href="#DejaVuSans-32" x="95.410156"/>
      </g>
     </g>
    </g>
    <g id="ytick_3">
     <g id="line2d_9">
      <g>
       <use xlink:href="#m07e72aca4e" x="72" y="248.4" style="stroke: #000000; stroke-width: 0.8"/>
      </g>
     </g>
     <g id="text_10">
      <!-- 0.4 -->
      <g transform="translate(49.096875 252.199219)scale(0.1 -0.1)">
       <use xlink:href="#DejaVuSans-30"/>
       <use xlink:href="#DejaVuSans-2e" x="63.623047"/>
       <use xlink:href="#DejaVuSans-34" x="95.410156"/>
      </g>
     </g>
    </g>
    <g id="ytick_4">
     <g id="line2d_10">
      <g>
       <use xlink:href="#m07e72aca4e" x="72" y="187.92" style="stroke: #000000; stroke-width: 0.8"/>
      </g>
     </g>
     <g id="text_11">
      <!-- 0.6 -->
      <g transform="translate(49.096875 191.719219)scale(0.1 -0.1)">
       <use xlink:href="#DejaVuSans-30"/>
       <use xlink:href="#DejaVuSans-2e" x="63.623047"/>
       <use xlink:href="#DejaVuSans-36" x="95.410156"/>
      </g>
     </g>
    </g>
    <g id="ytick_5">
     <g id="line2d_11">
      <g>
       <use xlink:href="#m07e72aca4e" x="72" y="127.44" style="stroke: #000000; stroke-width: 0.8"/>
      </g>
     </g>
     <g id="text_12">
      <!-- 0.8 -->
      <g transform="translate(49.096875 131.239219)scale(0.1 -0.1)">
       <use xlink:href="#DejaVuSans-30"/>
       <use xlink:href="#DejaVuSans-2e" x="63.623047"/>
       <use xlink:href="#DejaVuSans-38" x="95.410156"/>
      </g>
     </g>
    </g>
    <g id="ytick_6">
     <g id="line2d_12">
      <g>
       <use xlink:href="#m07e72aca4e" x="72" y="66.96" style="stroke: #000000; stroke-width: 0.8"/>
      </g>
     </g>
     <g id="text_13">
      <!-- 1.0 -->
      <g transform="translate(49.096875 70.759219)scale(0.1 -0.1)">
       <use xlink:href="#DejaVuSans-31"/>
       <use xlink:href="#DejaVuSans-2e" x="63.623047"/>
       <use xlink:href="#DejaVuSans-30" x="95.410156"/>
      </g>
     </g>
    </g>
    <g id="text_14">
     <!-- TPR - true positive rate -->
     <g transform="translate(43.017187 275.892812)rotate(-90)scale(0.1 -0.1)">
      <defs>
       <path id="DejaVuSans-54" d="M -19 4666 
L 3928 4666 
L 3928 4134 
L 2272 4134 
L 2272 0 
L 1638 0 
L 1638 4134 
L -19 4134 
L -19 4666 
z
" transform="scale(0.015625)"/>
       <path id="DejaVuSans-75" d="M 544 1381 
L 544 3500 
L 1119 3500 
L 1119 1403 
Q 1119 906 1312 657 
Q 1506 409 1894 409 
Q 2359 409 2629 706 
Q 2900 1003 2900 1516 
L 2900 3500 
L 3475 3500 
L 3475 0 
L 2900 0 
L 2900 538 
Q 2691 219 2414 64 
Q 2138 -91 1772 -91 
Q 1169 -91 856 284 
Q 544 659 544 1381 
z
M 1991 3584 
L 1991 3584 
z
" transform="scale(0.015625)"/>
      </defs>
      <use xlink:href="#DejaVuSans-54"/>
      <use xlink:href="#DejaVuSans-50" x="61.083984"/>
      <use xlink:href="#DejaVuSans-52" x="121.386719"/>
      <use xlink:href="#DejaVuSans-20" x="190.869141"/>
      <use xlink:href="#DejaVuSans-2d" x="222.65625"/>
      <use xlink:href="#DejaVuSans-20" x="258.740234"/>
      <use xlink:href="#DejaVuSans-74" x="290.527344"/>
      <use xlink:href="#DejaVuSans-72" x="329.736328"/>
      <use xlink:href="#DejaVuSans-75" x="370.849609"/>
      <use xlink:href="#DejaVuSans-65" x="434.228516"/>
      <use xlink:href="#DejaVuSans-20" x="495.751953"/>
      <use xlink:href="#DejaVuSans-70" x="527.539062"/>
      <use xlink:href="#DejaVuSans-6f" x="591.015625"/>
      <use xlink:href="#DejaVuSans-73" x="652.197266"/>
      <use xlink:href="#DejaVuSans-69" x="704.296875"/>
      <use xlink:href="#DejaVuSans-74" x="732.080078"/>
      <use xlink:href="#DejaVuSans-69" x="771.289062"/>
      <use xlink:href="#DejaVuSans-76" x="799.072266"/>
      <use xlink:href="#DejaVuSans-65" x="858.251953"/>
      <use xlink:href="#DejaVuSans-20" x="919.775391"/>
      <use xlink:href="#DejaVuSans-72" x="951.5625"/>
      <use xlink:href="#DejaVuSans-61" x="992.675781"/>
      <use xlink:href="#DejaVuSans-74" x="1053.955078"/>
      <use xlink:href="#DejaVuSans-65" x="1093.164062"/>
     </g>
    </g>
   </g>
   <g id="line2d_13">
    <path d="M 92.290909 369.36 
L 92.383944 84.018462 
L 92.430461 83.243077 
L 92.523496 80.916923 
L 92.581643 80.916923 
L 92.884007 76.652308 
L 93.035188 76.264615 
L 93.163111 76.264615 
L 93.349181 75.489231 
L 93.453845 75.101538 
L 93.849243 72.387692 
L 94.674928 72.387692 
L 95.128473 71.612308 
L 95.477354 70.836923 
L 96.337927 70.836923 
L 96.582143 70.449231 
L 96.872877 70.449231 
L 97.18687 70.061538 
L 97.954408 70.061538 
L 98.291659 69.673846 
L 99.489484 69.673846 
L 99.966287 69.286154 
L 100.303539 69.286154 
L 100.722196 68.898462 
L 101.140853 68.898462 
L 102.013055 68.123077 
L 102.664299 67.735385 
L 103.036439 67.347692 
L 103.606277 66.96 
L 498.109091 66.96 
L 498.109091 66.96 
" clip-path="url(#pbcc0e8ed03)" style="fill: none; stroke: #1f77b4; stroke-width: 1.5; stroke-linecap: square"/>
   </g>
   <g id="line2d_14">
    <path d="M 92.290909 369.36 
L 92.391934 67.557966 
L 92.568728 67.045424 
L 498.109091 66.96 
L 498.109091 66.96 
" clip-path="url(#pbcc0e8ed03)" style="fill: none; stroke: #ff7f0e; stroke-width: 1.5; stroke-linecap: square"/>
   </g>
   <g id="line2d_15">
    <path d="M 92.290909 369.36 
L 92.382651 79.56 
L 92.417054 79.56 
L 92.508795 78.51 
L 92.600536 78.51 
L 92.703745 77.46 
L 92.887228 77.46 
L 93.093647 74.31 
L 93.162453 74.31 
L 93.288597 72.21 
L 94.056931 72.21 
L 94.171608 71.16 
L 95.524794 71.16 
L 95.696809 70.11 
L 96.04084 70.11 
L 96.212855 69.06 
L 96.38487 69.06 
L 96.660094 68.01 
L 97.955942 68.01 
L 98.265569 66.96 
L 498.109091 66.96 
L 498.109091 66.96 
" clip-path="url(#pbcc0e8ed03)" style="fill: none; stroke: #2ca02c; stroke-width: 1.5; stroke-linecap: square"/>
   </g>
   <g id="line2d_16">
    <path d="M 92.290909 369.36 
L 92.383811 119.155068 
L 92.453487 102.170959 
L 92.558002 87.672329 
L 92.662516 80.21589 
L 92.941222 71.516712 
L 93.034123 71.516712 
L 93.161863 70.273973 
L 93.289603 68.616986 
L 93.684436 67.374247 
L 93.893465 67.374247 
L 93.963141 66.96 
L 498.109091 66.96 
L 498.109091 66.96 
" clip-path="url(#pbcc0e8ed03)" style="fill: none; stroke: #d62728; stroke-width: 1.5; stroke-linecap: square"/>
   </g>
   <g id="line2d_17">
    <path d="M 92.290909 369.36 
L 92.348325 78.66 
L 92.371292 78.66 
L 92.405742 78.66 
L 92.532057 76.86 
L 92.589474 76.86 
L 92.727273 75.96 
L 92.991388 74.16 
L 93.083254 74.16 
L 93.17512 73.26 
L 93.244019 71.46 
L 93.5311 71.46 
L 93.6689 69.66 
L 93.921531 67.86 
L 105.209569 67.86 
L 105.933014 66.96 
L 498.109091 66.96 
L 498.109091 66.96 
" clip-path="url(#pbcc0e8ed03)" style="fill: none; stroke: #9467bd; stroke-width: 1.5; stroke-linecap: square"/>
   </g>
   <g id="line2d_18">
    <path d="M 92.290909 369.36 
L 92.396588 84.5887 
L 92.619687 77.80843 
L 92.97195 76.181166 
L 93.054145 76.181166 
L 93.382923 72.655426 
L 93.770412 71.570583 
L 93.981769 70.756951 
L 94.134416 70.756951 
L 94.32229 70.214529 
L 94.756747 70.214529 
L 95.22643 69.400897 
L 95.883987 68.858475 
L 97.269553 68.858475 
L 97.950594 68.316054 
L 98.537698 68.316054 
L 98.866476 68.044843 
L 99.265707 67.502422 
L 101.402767 67.502422 
L 101.895934 67.231211 
L 206.588359 67.231211 
L 209.394718 66.96 
L 498.109091 66.96 
L 498.109091 66.96 
" clip-path="url(#pbcc0e8ed03)" style="fill: none; stroke: #8c564b; stroke-width: 1.5; stroke-linecap: square"/>
   </g>
   <g id="line2d_19">
    <path d="M 92.290909 369.36 
L 92.359809 97.56 
L 92.394258 97.56 
L 92.509091 94.86 
L 92.830622 94.86 
L 93.07177 93.06 
L 93.17512 93.06 
L 93.255502 92.16 
L 93.404785 92.16 
L 93.542584 91.26 
L 93.657416 91.26 
L 93.795215 90.36 
L 95.161722 90.36 
L 95.391388 89.46 
L 96.45933 89.46 
L 96.769378 88.56 
L 97.355024 88.56 
L 97.722488 87.66 
L 98.262201 87.66 
L 98.721531 86.76 
L 100.558852 86.76 
L 101.006699 84.06 
L 102.040191 82.26 
L 102.717703 82.26 
L 103.395215 81.36 
L 103.911962 81.36 
L 105.17512 79.56 
L 105.737799 79.56 
L 106.507177 78.66 
L 108.045933 78.66 
L 108.815311 77.76 
L 109.745455 76.86 
L 111.582775 76.86 
L 113.890909 75.06 
L 114.821053 75.06 
L 116.084211 74.16 
L 117.129187 74.16 
L 118.139713 73.26 
L 119.356938 73.26 
L 120.470813 72.36 
L 121.756938 72.36 
L 123.100478 71.46 
L 124.398086 71.46 
L 126.958852 69.66 
L 131.483254 69.66 
L 132.941627 68.76 
L 134.790431 67.86 
L 144.769378 67.86 
L 146.503349 66.96 
L 498.109091 66.96 
L 498.109091 66.96 
" clip-path="url(#pbcc0e8ed03)" style="fill: none; stroke: #e377c2; stroke-width: 1.5; stroke-linecap: square"/>
   </g>
   <g id="line2d_20">
    <path d="M 92.290909 369.36 
L 92.34817 97.2 
L 92.462691 94.68 
L 92.588665 93.42 
L 92.588665 93.42 
L 93.367411 93.42 
L 93.516289 92.16 
L 93.905661 92.16 
L 94.043087 90.9 
L 97.123714 90.9 
L 97.501635 89.64 
L 98.349093 89.64 
L 98.646849 87.12 
L 99.425595 84.6 
L 99.757707 84.6 
L 100.089819 83.34 
L 102.151205 83.34 
L 102.574935 80.82 
L 104.120974 80.82 
L 104.762294 79.56 
L 106.296881 79.56 
L 106.938202 78.3 
L 108.713284 78.3 
L 109.354604 75.78 
L 110.064637 74.52 
L 113.030742 74.52 
L 113.82094 73.26 
L 114.760016 72 
L 121.78018 72 
L 122.799421 70.74 
L 123.853019 68.22 
L 128.960675 68.22 
L 129.968464 66.96 
L 498.109091 66.96 
L 498.109091 66.96 
" clip-path="url(#pbcc0e8ed03)" style="fill: none; stroke: #7f7f7f; stroke-width: 1.5; stroke-linecap: square"/>
   </g>
   <g id="line2d_21">
    <path d="M 92.290909 369.36 
L 92.361049 89.931072 
L 92.664989 77.029511 
L 92.945549 73.253444 
L 93.272869 72.309428 
L 93.354699 72.309428 
L 93.530049 71.994755 
L 93.670329 71.994755 
L 93.775538 71.680083 
L 93.904128 71.680083 
L 94.102858 71.050739 
L 94.266518 70.736067 
L 94.792568 70.736067 
L 94.979608 70.421394 
L 95.166648 70.421394 
L 95.400448 70.106722 
L 96.417477 70.106722 
L 96.616207 69.79205 
L 97.948867 69.79205 
L 98.252807 69.162706 
L 98.895756 69.162706 
L 99.258146 68.533361 
L 99.714056 68.533361 
L 100.029686 67.904017 
L 114.88767 67.904017 
L 115.822869 67.589344 
L 126.612735 67.589344 
L 128.050604 67.274672 
L 286.321449 67.274672 
L 290.471397 66.96 
L 498.109091 66.96 
L 498.109091 66.96 
" clip-path="url(#pbcc0e8ed03)" style="fill: none; stroke: #bcbd22; stroke-width: 1.5; stroke-linecap: square"/>
   </g>
   <g id="line2d_22">
    <path d="M 92.290909 369.36 
L 92.396374 111.234833 
L 92.583868 94.740287 
L 92.970573 85.480191 
L 93.556491 75.930718 
L 93.732266 75.930718 
L 93.978352 74.483828 
L 94.505677 72.74756 
L 94.564269 72.74756 
L 94.997848 72.168804 
L 95.325962 72.168804 
L 95.525174 71.879426 
L 96.521233 71.879426 
L 96.779037 71.590048 
L 97.388391 71.590048 
L 97.716505 71.30067 
L 97.962591 71.30067 
L 98.396169 70.721914 
L 98.876622 70.721914 
L 99.298482 70.432536 
L 103.751455 70.432536 
L 104.337373 70.143158 
L 105.684983 70.143158 
L 106.434958 69.85378 
L 108.638007 69.85378 
L 109.505165 69.564402 
L 117.696292 69.564402 
L 118.750944 69.275024 
L 125.055416 69.275024 
L 126.543646 68.985646 
L 127.738918 68.40689 
L 130.680224 68.40689 
L 131.957524 68.117512 
L 138.578392 68.117512 
L 140.312708 67.828134 
L 191.744546 67.828134 
L 197.322481 67.249378 
L 203.005881 67.249378 
L 206.181554 66.96 
L 498.109091 66.96 
L 498.109091 66.96 
" clip-path="url(#pbcc0e8ed03)" style="fill: none; stroke: #17becf; stroke-width: 1.5; stroke-linecap: square"/>
   </g>
   <g id="line2d_23">
    <path d="M 92.290909 369.36 
L 92.382588 84.141818 
L 92.554487 78.414545 
L 92.886824 77.269091 
L 92.989963 76.123636 
L 93.253541 76.123636 
L 93.494199 73.832727 
L 93.585878 73.832727 
L 93.792157 72.687273 
L 93.895296 72.687273 
L 94.239093 70.396364 
L 94.938147 70.396364 
L 95.087126 69.250909 
L 96.840492 69.250909 
L 97.264508 66.96 
L 498.109091 66.96 
L 498.109091 66.96 
" clip-path="url(#pbcc0e8ed03)" style="fill: none; stroke: #1f77b4; stroke-width: 1.5; stroke-linecap: square"/>
   </g>
   <g id="line2d_24">
    <path d="M 92.290909 369.36 
L 92.395397 123.161942 
L 92.430226 107.643495 
L 92.534713 98.835728 
L 92.534713 98.835728 
L 92.662421 94.222136 
L 92.766908 89.189126 
L 92.871396 83.736699 
L 92.975883 82.478447 
L 93.521541 72.831845 
L 93.684077 71.99301 
L 93.718906 71.99301 
L 93.904662 71.573592 
L 93.99754 70.31534 
L 94.380661 69.476505 
L 94.508368 69.476505 
L 94.949538 68.218252 
L 95.553244 67.379417 
L 422.413638 67.379417 
L 425.141925 66.96 
L 498.109091 66.96 
L 498.109091 66.96 
" clip-path="url(#pbcc0e8ed03)" style="fill: none; stroke: #ff7f0e; stroke-width: 1.5; stroke-linecap: square"/>
   </g>
   <g id="line2d_25">
    <path d="M 92.290909 369.36 
L 92.382524 79.61272 
L 92.955115 79.61272 
L 93.103988 78.347448 
L 93.49335 78.347448 
L 93.676579 77.082176 
L 94.569821 77.082176 
L 94.787406 75.816904 
L 96.654053 75.816904 
L 96.928897 74.551632 
L 98.119886 74.551632 
L 98.5207 73.28636 
L 104.086285 73.28636 
L 104.62452 72.021088 
L 120.347871 72.021088 
L 121.206757 70.755816 
L 124.642303 70.755816 
L 125.787486 69.490544 
L 148.313218 69.490544 
L 150.237123 68.225272 
L 171.262667 68.225272 
L 173.587387 66.96 
L 498.109091 66.96 
L 498.109091 66.96 
" clip-path="url(#pbcc0e8ed03)" style="fill: none; stroke: #2ca02c; stroke-width: 1.5; stroke-linecap: square"/>
   </g>
   <g id="line2d_26">
    <path d="M 92.290909 369.36 
L 92.38312 102.498462 
L 92.406172 102.498462 
L 92.498383 99.913846 
L 92.498383 99.913846 
L 92.798067 97.329231 
L 93.22454 97.329231 
L 93.44354 96.036923 
L 93.581855 96.036923 
L 93.985276 94.744615 
L 94.907381 94.744615 
L 95.091801 94.098462 
L 97.581484 94.098462 
L 97.950325 93.452308 
L 98.780219 93.452308 
L 99.056851 92.16 
L 99.448745 92.16 
L 99.771482 91.513846 
L 100.013534 89.575385 
L 100.37085 89.575385 
L 100.624428 88.929231 
L 100.924112 88.929231 
L 101.189217 86.990769 
L 101.592638 86.344615 
L 102.215059 86.344615 
L 102.687637 85.052308 
L 103.782636 85.052308 
L 104.428109 83.76 
L 104.83153 81.821538 
L 106.20316 79.883077 
L 106.710318 79.883077 
L 107.770738 78.590769 
L 108.093475 78.590769 
L 108.646737 77.944615 
L 109.223053 76.652308 
L 110.237368 75.36 
L 111.263209 75.36 
L 112.554155 74.067692 
L 113.049786 74.067692 
L 114.963153 72.129231 
L 115.643205 70.836923 
L 117.060941 70.836923 
L 117.833203 70.190769 
L 120.380517 70.190769 
L 121.221937 69.544615 
L 123.089199 69.544615 
L 124.276408 68.898462 
L 128.587247 68.898462 
L 129.785983 68.252308 
L 132.079717 68.252308 
L 133.197769 66.96 
L 498.109091 66.96 
L 498.109091 66.96 
" clip-path="url(#pbcc0e8ed03)" style="fill: none; stroke: #d62728; stroke-width: 1.5; stroke-linecap: square"/>
   </g>
   <g id="line2d_27">
    <path d="M 92.290909 369.36 
L 92.393981 115.8961 
L 92.405434 115.8961 
L 92.554316 104.603154 
L 92.577221 104.603154 
L 92.737555 98.329295 
L 92.76046 97.074523 
L 93.207106 89.545892 
L 93.390346 85.781577 
L 93.791182 82.017261 
L 94.329448 82.017261 
L 94.638665 79.507718 
L 94.970786 79.507718 
L 95.211288 76.998174 
L 95.291456 76.998174 
L 95.577767 71.979087 
L 95.761007 71.979087 
L 95.978604 70.724315 
L 96.093128 70.724315 
L 96.390892 69.469544 
L 96.997873 69.469544 
L 97.204018 68.214772 
L 149.427269 68.214772 
L 151.236759 66.96 
L 498.109091 66.96 
L 498.109091 66.96 
" clip-path="url(#pbcc0e8ed03)" style="fill: none; stroke: #9467bd; stroke-width: 1.5; stroke-linecap: square"/>
   </g>
   <g id="line2d_28">
    <path d="M 92.290909 369.36 
L 92.394717 143.789268 
L 92.971425 89.701463 
L 93.063698 87.857561 
L 93.190574 81.71122 
L 93.328984 81.71122 
L 93.501997 77.40878 
L 93.698078 74.33561 
L 93.767283 74.33561 
L 94.044103 71.877073 
L 94.42473 69.418537 
L 94.736153 69.418537 
L 94.782289 68.803902 
L 95.416669 68.803902 
L 95.589681 68.189268 
L 98.323279 68.189268 
L 98.646236 67.574634 
L 101.310629 67.574634 
L 101.852735 66.96 
L 498.109091 66.96 
L 498.109091 66.96 
" clip-path="url(#pbcc0e8ed03)" style="fill: none; stroke: #8c564b; stroke-width: 1.5; stroke-linecap: square"/>
   </g>
   <g id="line2d_29">
    <path d="M 92.290909 369.36 
L 92.398674 82.215605 
L 92.54236 74.926816 
L 92.614203 74.926816 
L 92.745916 74.418296 
L 92.973419 73.062242 
L 93.081184 73.062242 
L 93.176975 72.723229 
L 93.643956 72.723229 
L 93.931328 72.214709 
L 94.051067 72.045202 
L 94.206727 71.367175 
L 94.745551 71.367175 
L 95.272401 70.180628 
L 95.954911 69.841614 
L 96.38597 69.841614 
L 96.984664 69.502601 
L 98.277841 69.502601 
L 99.295619 69.163587 
L 99.774574 68.824574 
L 100.337345 68.824574 
L 100.8163 68.485561 
L 104.240825 68.485561 
L 105.821375 67.97704 
L 108.946553 67.97704 
L 109.748802 67.807534 
L 111.461065 67.807534 
L 112.335157 67.638027 
L 116.693643 67.638027 
L 117.903003 67.46852 
L 128.032892 67.46852 
L 129.36199 67.299013 
L 137.444348 67.299013 
L 139.06082 67.129507 
L 142.664953 67.129507 
L 144.580771 66.96 
L 498.109091 66.96 
L 498.109091 66.96 
" clip-path="url(#pbcc0e8ed03)" style="fill: none; stroke: #e377c2; stroke-width: 1.5; stroke-linecap: square"/>
   </g>
   <g id="line2d_30">
    <path d="M 92.290909 369.36 
L 92.371158 169.579495 
L 92.40555 160.845921 
L 92.508727 142.287076 
L 92.508727 142.287076 
L 92.841187 118.269747 
L 92.875579 118.269747 
L 92.99022 109.536173 
L 93.150718 102.985993 
L 93.643675 93.160722 
L 93.735387 93.160722 
L 94.15956 89.885632 
L 94.423234 87.702238 
L 94.595196 87.702238 
L 94.686909 86.610542 
L 95.042297 86.610542 
L 95.351828 84.427148 
L 96.211636 84.427148 
L 96.784842 81.152058 
L 96.979732 81.152058 
L 97.186086 80.060361 
L 97.403904 80.060361 
L 97.770756 77.876968 
L 98.240784 77.876968 
L 98.527387 76.785271 
L 98.871311 74.601877 
L 99.157914 73.510181 
L 100.23554 73.510181 
L 100.487751 72.418484 
L 100.923387 71.326787 
L 105.02754 71.326787 
L 105.623674 70.23509 
L 106.793014 70.23509 
L 107.354755 69.143394 
L 122.258104 69.143394 
L 123.358659 68.051697 
L 236.669964 68.051697 
L 240.200912 66.96 
L 498.109091 66.96 
L 498.109091 66.96 
" clip-path="url(#pbcc0e8ed03)" style="fill: none; stroke: #7f7f7f; stroke-width: 1.5; stroke-linecap: square"/>
   </g>
   <g id="line2d_31">
    <path d="M 92.290909 369.36 
L 92.34817 133.74 
L 92.371074 133.74 
L 92.451239 127.44 
L 92.542856 122.4 
L 92.714638 112.32 
L 92.920777 109.8 
L 92.955133 109.8 
L 93.14982 106.02 
L 93.401767 106.02 
L 93.562097 102.24 
L 94.077444 102.24 
L 94.226321 100.98 
L 94.730216 100.98 
L 94.959259 98.46 
L 95.55477 95.94 
L 96.218995 95.94 
L 96.51675 94.68 
L 96.917575 94.68 
L 97.3184 92.16 
L 97.776486 90.9 
L 99.02477 90.9 
L 99.551569 89.64 
L 102.059588 89.64 
L 102.506222 88.38 
L 103.216255 88.38 
L 103.846123 85.86 
L 107.820017 85.86 
L 108.793449 84.6 
L 130.277671 84.6 
L 132.029849 83.34 
L 145.715162 83.34 
L 147.868165 82.08 
L 154.831069 82.08 
L 157.087141 80.82 
L 164.462322 80.82 
L 166.844368 79.56 
L 169.318031 79.56 
L 174.288262 77.04 
L 182.625423 77.04 
L 185.44265 75.78 
L 191.695521 75.78 
L 194.730339 74.52 
L 227.323141 74.52 
L 230.667167 73.26 
L 252.277364 73.26 
L 256.526109 72 
L 272.387329 72 
L 276.200893 70.74 
L 283.862377 70.74 
L 287.710298 69.48 
L 394.616064 69.48 
L 398.143324 68.22 
L 444.810812 68.22 
L 446.998171 66.96 
L 498.109091 66.96 
L 498.109091 66.96 
" clip-path="url(#pbcc0e8ed03)" style="fill: none; stroke: #bcbd22; stroke-width: 1.5; stroke-linecap: square"/>
   </g>
   <g id="line2d_32">
    <path d="M 92.290909 369.36 
L 92.382591 121.73434 
L 92.554494 106.899623 
L 92.726398 98.911698 
L 92.795159 98.911698 
L 93.104585 90.923774 
L 93.448392 90.923774 
L 93.82658 87.500377 
L 93.975563 86.359245 
L 94.239148 86.359245 
L 94.548574 82.935849 
L 95.041364 82.935849 
L 95.144506 81.794717 
L 95.362251 81.794717 
L 95.545614 80.653585 
L 95.706057 80.653585 
L 95.935262 79.512453 
L 96.382211 79.512453 
L 96.645796 78.371321 
L 97.367791 78.371321 
L 97.700137 77.230189 
L 98.456512 77.230189 
L 98.800319 76.089057 
L 103.017684 76.089057 
L 103.579235 74.947925 
L 104.186627 74.947925 
L 104.782559 73.806792 
L 105.962963 73.806792 
L 106.753719 72.66566 
L 115.222828 72.66566 
L 116.059425 71.524528 
L 121.674937 71.524528 
L 122.79804 70.383396 
L 123.863841 70.383396 
L 124.929642 69.242264 
L 135.140707 69.242264 
L 136.573235 68.101132 
L 155.413852 68.101132 
L 157.132887 66.96 
L 498.109091 66.96 
L 498.109091 66.96 
" clip-path="url(#pbcc0e8ed03)" style="fill: none; stroke: #17becf; stroke-width: 1.5; stroke-linecap: square"/>
   </g>
   <g id="line2d_33">
    <path d="M 92.290909 369.36 
L 92.393978 98.46 
L 92.634473 83.34 
L 92.909325 73.26 
L 93.504836 69.48 
L 94.146156 69.48 
L 94.249226 68.22 
L 97.627608 68.22 
L 97.868103 66.96 
L 498.109091 66.96 
L 498.109091 66.96 
" clip-path="url(#pbcc0e8ed03)" style="fill: none; stroke: #1f77b4; stroke-width: 1.5; stroke-linecap: square"/>
   </g>
   <g id="line2d_34">
    <path d="M 92.290909 369.36 
L 92.395033 140.162003 
L 92.429741 130.570017 
L 92.533865 107.852154 
L 92.880946 80.590718 
L 92.927223 80.590718 
L 93.031348 75.037462 
L 93.239596 72.008414 
L 93.239596 72.008414 
L 93.389998 70.49389 
L 93.575107 67.969683 
L 93.771786 67.969683 
L 93.852772 67.464841 
L 457.55851 67.464841 
L 459.606285 66.96 
L 498.109091 66.96 
L 498.109091 66.96 
" clip-path="url(#pbcc0e8ed03)" style="fill: none; stroke: #ff7f0e; stroke-width: 1.5; stroke-linecap: square"/>
   </g>
   <g id="line2d_35">
    <path d="M 92.290909 369.36 
L 92.39608 73.658734 
L 92.58305 70.787848 
L 92.629792 70.787848 
L 92.746648 70.468861 
L 92.770019 70.468861 
L 92.886876 70.149873 
L 93.120588 68.873924 
L 93.716555 68.873924 
L 94.277464 67.597975 
L 94.569605 67.597975 
L 94.826688 67.278987 
L 95.03703 66.96 
L 498.109091 66.96 
L 498.109091 66.96 
" clip-path="url(#pbcc0e8ed03)" style="fill: none; stroke: #2ca02c; stroke-width: 1.5; stroke-linecap: square"/>
   </g>
   <g id="line2d_36">
    <path d="M 92.290909 369.36 
L 92.398958 69.704688 
L 92.446979 68.735974 
L 92.495001 68.090166 
L 92.543022 68.090166 
L 92.711098 67.605809 
L 93.683534 67.605809 
L 93.875621 67.444357 
L 98.101518 67.444357 
L 98.557722 67.282904 
L 112.628039 67.282904 
L 113.576465 67.121452 
L 269.982679 67.121452 
L 273.092075 66.96 
L 498.109091 66.96 
L 498.109091 66.96 
" clip-path="url(#pbcc0e8ed03)" style="fill: none; stroke: #d62728; stroke-width: 1.5; stroke-linecap: square"/>
   </g>
   <g id="line2d_37">
    <path d="M 92.290909 369.36 
L 92.386205 108.145075 
L 92.672093 84.637612 
L 92.695917 84.449552 
L 92.838861 81.816716 
L 92.981805 81.252537 
L 93.196221 77.867463 
L 93.374902 77.867463 
L 93.589318 76.927164 
L 93.684614 76.927164 
L 94.363598 75.610746 
L 94.55419 75.610746 
L 94.79243 75.422687 
L 95.018758 74.858507 
L 95.471414 74.858507 
L 96.674527 73.54209 
L 97.365423 73.16597 
L 97.734695 73.16597 
L 98.127791 72.97791 
L 98.997368 72.97791 
L 100.510192 72.225672 
L 101.081969 72.225672 
L 101.677569 72.037612 
L 102.416113 71.661493 
L 103.714522 71.285373 
L 104.548362 71.285373 
L 106.132659 70.909254 
L 106.942675 70.533134 
L 108.562708 70.157015 
L 109.694348 70.157015 
L 110.778341 69.968955 
L 111.814685 69.592836 
L 112.97015 69.404776 
L 116.567575 69.404776 
L 117.7826 69.028657 
L 118.997624 68.464478 
L 120.367505 68.276418 
L 125.906587 68.276418 
L 127.347939 68.088358 
L 136.782247 68.088358 
L 138.295072 67.900299 
L 155.781895 67.900299 
L 157.961792 67.524179 
L 162.46453 67.524179 
L 165.073259 67.336119 
L 197.40244 67.336119 
L 200.451913 67.14806 
L 480.133876 67.14806 
L 481.134484 66.96 
L 498.109091 66.96 
L 498.109091 66.96 
" clip-path="url(#pbcc0e8ed03)" style="fill: none; stroke: #9467bd; stroke-width: 1.5; stroke-linecap: square"/>
   </g>
   <g id="line2d_38">
    <path d="M 92.290909 369.36 
L 92.394223 89.36 
L 92.394223 89.36 
L 92.543455 83.76 
L 92.830439 83.76 
L 92.956712 80.96 
L 93.255175 80.96 
L 93.484762 78.16 
L 93.794705 78.16 
L 93.978374 75.36 
L 94.093168 75.36 
L 94.196482 74.426667 
L 94.449028 74.426667 
L 94.58678 73.493333 
L 95.780633 73.493333 
L 96.113535 71.626667 
L 101.107054 71.626667 
L 101.566228 70.693333 
L 102.61085 70.693333 
L 102.989669 69.76 
L 109.486984 69.76 
L 110.279059 68.826667 
L 118.429402 68.826667 
L 119.508461 67.893333 
L 130.723792 67.893333 
L 131.975042 66.96 
L 498.109091 66.96 
L 498.109091 66.96 
" clip-path="url(#pbcc0e8ed03)" style="fill: none; stroke: #8c564b; stroke-width: 1.5; stroke-linecap: square"/>
   </g>
   <g id="line2d_39">
    <path d="M 92.290909 369.36 
L 92.393978 121.14 
L 92.5085 116.1 
L 92.531404 116.1 
L 92.623021 109.8 
L 92.932229 98.46 
L 93.104011 98.46 
L 93.252889 94.68 
L 93.344506 94.68 
L 93.481932 93.42 
L 93.562097 93.42 
L 93.699523 90.9 
L 94.008731 87.12 
L 94.191965 87.12 
L 94.478269 84.6 
L 95.692196 84.6 
L 95.944143 83.34 
L 96.104473 83.34 
L 96.35642 82.08 
L 96.562559 82.08 
L 96.768697 80.82 
L 98.131503 80.82 
L 98.394902 79.56 
L 98.841536 78.3 
L 99.792064 78.3 
L 100.765496 75.78 
L 102.471865 75.78 
L 102.918499 74.52 
L 103.502558 74.52 
L 104.762294 72 
L 111.57632 72 
L 112.675726 70.74 
L 120.703679 70.74 
L 121.917606 69.48 
L 138.626285 69.48 
L 140.412819 68.22 
L 182.167337 68.22 
L 184.824234 66.96 
L 498.109091 66.96 
L 498.109091 66.96 
" clip-path="url(#pbcc0e8ed03)" style="fill: none; stroke: #e377c2; stroke-width: 1.5; stroke-linecap: square"/>
   </g>
   <g id="line2d_40">
    <path d="M 92.290909 369.36 
L 92.394255 92.235224 
L 92.405738 92.235224 
L 92.497602 81.402985 
L 92.497602 81.402985 
L 92.681329 72.376119 
L 92.784675 72.376119 
L 93.071748 69.66806 
L 93.19806 69.66806 
L 93.358821 68.765373 
L 93.496617 68.765373 
L 93.737758 67.862687 
L 105.70297 67.862687 
L 106.346014 66.96 
L 498.109091 66.96 
L 498.109091 66.96 
" clip-path="url(#pbcc0e8ed03)" style="fill: none; stroke: #7f7f7f; stroke-width: 1.5; stroke-linecap: square"/>
   </g>
   <g id="line2d_41">
    <path d="M 92.290909 369.36 
L 92.382994 138.96 
L 92.509611 131.76 
L 93.027588 103.68 
L 93.856352 92.88 
L 93.982969 90.72 
L 94.086565 90 
L 94.17865 87.84 
L 94.316777 87.12 
L 94.408862 87.12 
L 94.570011 85.68 
L 94.731159 85.68 
L 94.765691 83.52 
L 95.076478 83.52 
L 95.157052 82.8 
L 95.352732 82.8 
L 95.617476 81.36 
L 95.744093 81.36 
L 96.480772 77.76 
L 96.6189 77.76 
L 96.791559 77.04 
L 96.987239 77.04 
L 97.090835 76.32 
L 97.217452 76.32 
L 97.459174 75.6 
L 103.697927 75.6 
L 104.158351 74.88 
L 104.964094 74.88 
L 105.574157 73.44 
L 106.75975 72 
L 109.257553 72 
L 110.224445 71.28 
L 112.00859 71.28 
L 112.986992 70.56 
L 126.983898 70.56 
L 129.677381 69.12 
L 138.344873 69.12 
L 140.036933 68.4 
L 157.325874 68.4 
L 159.604976 67.68 
L 267.747187 67.68 
L 271.108286 66.96 
L 498.109091 66.96 
L 498.109091 66.96 
" clip-path="url(#pbcc0e8ed03)" style="fill: none; stroke: #bcbd22; stroke-width: 1.5; stroke-linecap: square"/>
   </g>
   <g id="line2d_42">
    <path d="M 92.290909 369.36 
L 92.394223 186.426667 
L 92.417182 166.826667 
L 92.486058 134.16 
L 92.520496 134.16 
L 92.669728 120.16 
L 92.692687 120.16 
L 92.773042 108.96 
L 92.796001 108.96 
L 93.174819 97.76 
L 93.255175 97.76 
L 93.33553 96.826667 
L 93.484762 95.893333 
L 93.771746 94.026667 
L 94.093168 94.026667 
L 95.103351 87.493333 
L 96.090576 87.493333 
L 96.354601 86.56 
L 96.928569 86.56 
L 97.158156 84.693333 
L 97.502537 83.76 
L 97.663248 82.826667 
L 97.915793 82.826667 
L 98.14538 81.893333 
L 98.478282 81.893333 
L 99.109646 77.226667 
L 99.350713 77.226667 
L 100.027995 75.36 
L 100.728236 75.36 
L 101.061137 74.426667 
L 101.382559 74.426667 
L 101.853212 72.56 
L 102.771561 72.56 
L 103.047065 71.626667 
L 103.483281 70.693333 
L 103.8621 70.693333 
L 104.160563 69.76 
L 107.225551 69.76 
L 107.833957 68.826667 
L 108.235734 68.826667 
L 108.786743 67.893333 
L 111.266284 67.893333 
L 111.897649 66.96 
L 498.109091 66.96 
L 498.109091 66.96 
" clip-path="url(#pbcc0e8ed03)" style="fill: none; stroke: #17becf; stroke-width: 1.5; stroke-linecap: square"/>
   </g>
   <g id="line2d_43">
    <path d="M 92.290909 369.36 
L 92.394013 71.76 
L 92.497118 71.76 
L 92.57731 70.56 
L 92.646046 70.56 
L 92.726238 68.16 
L 93.173023 68.16 
L 93.344863 66.96 
L 498.109091 66.96 
L 498.109091 66.96 
" clip-path="url(#pbcc0e8ed03)" style="fill: none; stroke: #1f77b4; stroke-width: 1.5; stroke-linecap: square"/>
   </g>
   <g id="line2d_44">
    <path d="M 92.290909 369.36 
L 92.359738 100.224 
L 92.359738 100.224 
L 92.657999 92.16 
L 92.692414 92.16 
L 93.025089 85.104 
L 93.380708 76.032 
L 93.529838 76.032 
L 93.805156 73.008 
L 93.942815 73.008 
L 94.309905 70.992 
L 95.399704 70.992 
L 95.537363 69.984 
L 97.154854 69.984 
L 97.487529 67.968 
L 105.597928 67.968 
L 106.27475 66.96 
L 498.109091 66.96 
L 498.109091 66.96 
" clip-path="url(#pbcc0e8ed03)" style="fill: none; stroke: #ff7f0e; stroke-width: 1.5; stroke-linecap: square"/>
   </g>
   <g id="line2d_45">
    <path d="M 92.290909 369.36 
L 92.397706 108.522085 
L 92.670633 91.119242 
L 92.718099 90.300284 
L 92.824896 80.063318 
L 93.228353 72.487962 
L 93.299551 72.487962 
L 93.453814 71.259526 
L 93.572478 70.850047 
L 93.738607 70.850047 
L 93.786072 70.440569 
L 94.782848 68.393175 
L 94.865913 68.393175 
L 95.115107 68.188436 
L 95.66096 68.188436 
L 95.838955 67.983697 
L 96.206813 67.983697 
L 96.325477 67.574218 
L 97.167989 67.574218 
L 97.405317 67.369479 
L 98.936079 67.369479 
L 99.244605 67.164739 
L 336.845045 67.164739 
L 341.484798 66.96 
L 498.109091 66.96 
L 498.109091 66.96 
" clip-path="url(#pbcc0e8ed03)" style="fill: none; stroke: #2ca02c; stroke-width: 1.5; stroke-linecap: square"/>
   </g>
   <g id="line2d_46">
    <path d="M 92.290909 369.36 
L 92.382588 125.378182 
L 92.439888 123.087273 
L 92.588867 103.614545 
L 92.600327 103.614545 
L 92.669086 101.323636 
L 93.597338 79.56 
L 93.803617 79.56 
L 94.044275 78.414545 
L 94.58289 78.414545 
L 94.708949 77.269091 
L 94.938147 77.269091 
L 95.052746 74.978182 
L 96.645673 74.978182 
L 96.897791 73.832727 
L 97.551006 73.832727 
L 97.894803 72.687273 
L 98.28444 72.687273 
L 98.708456 71.541818 
L 99.121013 69.250909 
L 99.579409 69.250909 
L 99.831527 68.105455 
L 106.73039 68.105455 
L 107.349225 66.96 
L 498.109091 66.96 
L 498.109091 66.96 
" clip-path="url(#pbcc0e8ed03)" style="fill: none; stroke: #d62728; stroke-width: 1.5; stroke-linecap: square"/>
   </g>
   <g id="line2d_47">
    <path d="M 92.290909 369.36 
L 92.396701 109.2225 
L 92.819869 102.135 
L 93.019699 101.085 
L 93.113736 100.8225 
L 93.348829 99.51 
L 93.830771 98.46 
L 94.054109 98.46 
L 94.20692 97.41 
L 94.336221 97.1475 
L 94.442013 96.0975 
L 94.641843 95.835 
L 94.853427 95.0475 
L 95.159048 94.5225 
L 95.46467 93.735 
L 95.864328 93.735 
L 96.158195 92.16 
L 96.569608 91.635 
L 96.734174 90.8475 
L 97.557001 89.535 
L 98.038942 88.485 
L 98.321054 88.485 
L 98.591412 88.2225 
L 99.16739 87.1725 
L 99.52003 86.91 
L 100.507423 84.81 
L 101.236212 84.285 
L 101.518324 84.285 
L 102.01202 83.235 
L 102.446943 83.235 
L 102.787828 82.71 
L 103.140468 82.4475 
L 103.5989 82.4475 
L 103.998559 81.66 
L 105.138762 81.66 
L 105.667722 81.3975 
L 106.196682 80.61 
L 106.760906 80.3475 
L 107.289866 80.3475 
L 107.85409 79.8225 
L 108.383051 79.8225 
L 110.428363 79.035 
L 111.180662 79.035 
L 111.979979 78.7725 
L 114.330913 78.7725 
L 115.212513 78.2475 
L 116.999223 78.2475 
L 117.869068 77.985 
L 118.68014 77.1975 
L 121.583543 75.885 
L 122.535672 75.885 
L 123.605346 75.0975 
L 124.780813 75.0975 
L 125.674168 74.835 
L 126.990691 74.835 
L 129.353379 74.31 
L 133.114873 74.31 
L 134.325604 74.0475 
L 135.653882 74.0475 
L 136.829349 73.785 
L 141.108048 73.785 
L 142.765456 72.9975 
L 144.446374 72.4725 
L 146.0215 72.4725 
L 147.702417 72.21 
L 149.39509 71.685 
L 150.958461 71.685 
L 154.50837 71.16 
L 160.162366 71.16 
L 162.054868 70.8975 
L 164.041407 70.11 
L 170.212608 69.3225 
L 172.798635 69.3225 
L 177.171372 68.7975 
L 183.671703 68.7975 
L 186.140184 68.2725 
L 188.737966 68.2725 
L 191.371011 68.01 
L 202.94936 68.01 
L 205.888027 67.7475 
L 232.970784 67.7475 
L 236.673505 67.485 
L 264.461541 67.485 
L 268.352337 67.2225 
L 272.407697 67.2225 
L 276.850962 66.96 
L 498.109091 66.96 
L 498.109091 66.96 
" clip-path="url(#pbcc0e8ed03)" style="fill: none; stroke: #9467bd; stroke-width: 1.5; stroke-linecap: square"/>
   </g>
   <g id="line2d_48">
    <path d="M 92.290909 369.36 
L 92.386172 125.317895 
L 93.160179 103.907368 
L 93.898464 94.623158 
L 94.017542 94.433684 
L 94.279513 94.244211 
L 94.362868 92.917895 
L 94.970166 91.591579 
L 95.27977 90.075789 
L 95.506018 89.886316 
L 95.791805 88.749474 
L 96.018054 88.56 
L 96.589629 87.233684 
L 96.899232 87.044211 
L 97.50653 85.149474 
L 97.875672 84.770526 
L 98.209091 84.012632 
L 98.482971 84.012632 
L 98.875928 83.444211 
L 99.24507 82.686316 
L 99.757106 82.117895 
L 100.28105 81.738947 
L 100.852625 81.170526 
L 101.376569 80.981053 
L 101.817157 80.981053 
L 102.436364 80.223158 
L 103.019846 79.844211 
L 103.603329 79.275789 
L 104.186812 79.275789 
L 104.79411 78.896842 
L 105.484763 77.949474 
L 106.580282 77.002105 
L 107.306658 77.002105 
L 108.247375 76.433684 
L 109.116645 76.244211 
L 111.021895 75.296842 
L 114.891933 74.538947 
L 115.963636 74.349474 
L 116.856722 73.402105 
L 119.190653 73.023158 
L 120.369526 73.023158 
L 121.834187 72.644211 
L 123.096415 72.644211 
L 124.406274 72.454737 
L 125.728041 71.696842 
L 127.049808 71.696842 
L 131.431882 70.938947 
L 132.944174 70.938947 
L 135.84968 70.56 
L 137.314341 70.56 
L 140.600896 70.181053 
L 141.946479 69.612632 
L 144.00653 69.612632 
L 145.971319 69.423158 
L 147.948015 69.044211 
L 149.710371 69.044211 
L 153.699488 68.286316 
L 160.10589 68.286316 
L 162.106402 68.096842 
L 168.858131 66.96 
L 498.109091 66.96 
L 498.109091 66.96 
" clip-path="url(#pbcc0e8ed03)" style="fill: none; stroke: #8c564b; stroke-width: 1.5; stroke-linecap: square"/>
   </g>
   <g id="line2d_49">
    <path d="M 92.290909 369.36 
L 92.396554 144.477391 
L 92.736966 111.333913 
L 93.006948 104.212174 
L 93.253454 96.542609 
L 93.629081 92.433913 
L 93.746464 91.886087 
L 94.016446 88.59913 
L 94.579887 83.394783 
L 94.849869 82.025217 
L 94.990729 81.203478 
L 95.213758 80.655652 
L 95.472002 79.286087 
L 95.683292 79.286087 
L 95.918059 78.464348 
L 96.117611 78.190435 
L 96.281948 77.642609 
L 96.493238 77.368696 
L 96.83365 77.368696 
L 98.512234 75.725217 
L 98.840908 75.177391 
L 99.157843 75.177391 
L 99.39261 74.629565 
L 100.484276 74.629565 
L 101.035979 74.081739 
L 101.423344 73.533913 
L 101.81071 73.533913 
L 102.280244 72.438261 
L 103.864921 72.438261 
L 104.416623 71.616522 
L 105.062232 71.616522 
L 105.883917 71.342609 
L 106.506049 70.794783 
L 109.62845 70.794783 
L 110.356227 70.246957 
L 111.177912 70.246957 
L 111.823521 68.877391 
L 112.53956 68.877391 
L 114.253359 68.329565 
L 119.958196 68.329565 
L 121.2142 68.055652 
L 125.721725 68.055652 
L 128.257209 67.507826 
L 129.630595 67.507826 
L 130.980506 67.233913 
L 179.624221 67.233913 
L 182.230135 66.96 
L 498.109091 66.96 
L 498.109091 66.96 
" clip-path="url(#pbcc0e8ed03)" style="fill: none; stroke: #e377c2; stroke-width: 1.5; stroke-linecap: square"/>
   </g>
   <g id="line2d_50">
    <path d="M 92.290909 369.36 
L 92.395036 138.024 
L 92.753696 115.848 
L 92.776836 115.848 
L 92.927242 111.312 
L 93.390029 107.784 
L 93.436308 107.784 
L 93.552004 107.28 
L 93.71398 104.256 
L 93.956943 101.736 
L 94.107349 101.232 
L 94.223046 97.704 
L 94.523858 95.688 
L 94.651124 95.688 
L 94.743682 94.68 
L 95.032924 94.68 
L 95.53042 93.168 
L 95.680826 92.16 
L 95.796523 92.16 
L 95.923789 91.656 
L 96.294019 89.136 
L 96.513843 89.136 
L 96.9882 85.608 
L 97.427848 84.6 
L 97.636102 82.584 
L 98.168308 81.576 
L 98.480689 81.072 
L 98.80464 80.064 
L 98.966616 78.552 
L 99.267428 77.04 
L 99.637657 77.04 
L 99.938469 75.528 
L 100.181433 75.528 
L 100.540093 75.024 
L 100.875613 73.008 
L 101.303692 73.008 
L 101.650782 72.504 
L 101.974733 72.504 
L 102.379672 71.496 
L 103.328386 70.488 
L 112.445296 70.488 
L 113.232034 69.984 
L 114.85179 69.984 
L 115.684807 69.48 
L 119.155712 69.48 
L 120.115995 68.472 
L 137.79447 68.472 
L 139.333238 67.968 
L 170.21272 67.968 
L 172.607645 67.464 
L 334.733605 67.464 
L 338.20451 66.96 
L 498.109091 66.96 
L 498.109091 66.96 
" clip-path="url(#pbcc0e8ed03)" style="fill: none; stroke: #7f7f7f; stroke-width: 1.5; stroke-linecap: square"/>
   </g>
   <g id="line2d_51">
    <path d="M 92.290909 369.36 
L 92.371076 76.998174 
L 92.371076 76.998174 
L 92.703198 70.724315 
L 92.71465 70.724315 
L 92.85208 69.469544 
L 93.321631 69.469544 
L 93.493418 68.214772 
L 298.778896 68.214772 
L 302.283351 66.96 
L 498.109091 66.96 
L 498.109091 66.96 
" clip-path="url(#pbcc0e8ed03)" style="fill: none; stroke: #bcbd22; stroke-width: 1.5; stroke-linecap: square"/>
   </g>
   <g id="line2d_52">
    <path d="M 92.290909 369.36 
L 92.382682 101.232 
L 92.394153 101.232 
L 92.474454 101.232 
L 92.474454 101.232 
L 92.58917 99.216 
L 92.864487 97.2 
L 93.059504 97.2 
L 93.139805 96.192 
L 93.208635 96.192 
L 93.667497 91.152 
L 93.885457 91.152 
L 94.12636 87.12 
L 94.367263 87.12 
L 94.516393 86.112 
L 94.952313 80.064 
L 95.124386 79.056 
L 95.66355 79.056 
L 95.858567 76.032 
L 97.017195 76.032 
L 97.579302 74.016 
L 97.866091 73.008 
L 98.15288 73.008 
L 98.462613 72 
L 102.454718 72 
L 102.936524 70.992 
L 103.475688 70.992 
L 104.095152 69.984 
L 107.777526 69.984 
L 108.592007 68.976 
L 109.406488 68.976 
L 110.129197 67.968 
L 137.626545 67.968 
L 138.716344 66.96 
L 498.109091 66.96 
L 498.109091 66.96 
" clip-path="url(#pbcc0e8ed03)" style="fill: none; stroke: #17becf; stroke-width: 1.5; stroke-linecap: square"/>
   </g>
   <g id="line2d_53">
    <path d="M 92.290909 369.36 
L 92.395039 91.111747 
L 92.429749 85.07381 
L 92.557019 80.545358 
L 92.591729 80.545358 
L 92.75371 80.042196 
L 92.82313 80.042196 
L 92.82313 79.539035 
L 92.86941 79.539035 
L 93.0661 78.029551 
L 93.14709 78.029551 
L 93.40163 75.513744 
L 93.48262 75.010582 
L 93.679311 75.010582 
L 93.887571 74.00426 
L 94.014841 74.00426 
L 95.229692 69.978968 
L 95.333822 69.978968 
L 95.484232 69.475807 
L 95.819763 69.475807 
L 95.947033 68.469484 
L 96.132153 68.469484 
L 96.375123 67.966323 
L 97.647825 67.966323 
L 97.925505 67.463161 
L 116.171415 67.463161 
L 116.911895 66.96 
L 498.109091 66.96 
L 498.109091 66.96 
" clip-path="url(#pbcc0e8ed03)" style="fill: none; stroke: #1f77b4; stroke-width: 1.5; stroke-linecap: square"/>
   </g>
   <g id="line2d_54">
    <path d="M 92.290909 369.36 
L 92.387223 78.638049 
L 92.59189 72.030732 
L 92.941027 70.186829 
L 93.133655 70.033171 
L 93.20589 70.033171 
L 93.278126 69.879512 
L 93.603185 69.725854 
L 94.855264 69.725854 
L 94.987695 69.572195 
L 95.613735 69.572195 
L 95.890637 69.11122 
L 96.408324 69.11122 
L 97.299227 68.803902 
L 98.093815 68.803902 
L 99.743189 68.189268 
L 105.979507 68.189268 
L 107.556646 67.881951 
L 111.457355 67.881951 
L 112.444571 67.728293 
L 113.564219 67.728293 
L 114.744063 67.574634 
L 149.224402 67.574634 
L 151.391463 67.420976 
L 167.2712 67.420976 
L 169.847594 67.267317 
L 235.088152 67.267317 
L 238.109997 67.113659 
L 305.337027 67.113659 
L 308.984912 66.96 
L 498.109091 66.96 
L 498.109091 66.96 
" clip-path="url(#pbcc0e8ed03)" style="fill: none; stroke: #ff7f0e; stroke-width: 1.5; stroke-linecap: square"/>
   </g>
   <g id="line2d_55">
    <path d="M 92.290909 369.36 
L 92.363271 92.470804 
L 93.06277 75.314415 
L 93.340158 73.225812 
L 93.40046 73.076626 
L 93.605486 71.584766 
L 93.76227 71.43558 
L 94.11202 70.988022 
L 94.256744 70.838836 
L 94.437649 70.391278 
L 95.185389 69.794534 
L 95.58338 68.750232 
L 96.101975 68.750232 
L 96.307 68.45186 
L 97.187405 68.45186 
L 98.622584 68.004302 
L 99.515049 68.004302 
L 100.564298 67.407558 
L 101.058772 67.407558 
L 101.432642 67.258372 
L 103.434658 67.258372 
L 103.929131 67.109186 
L 117.147258 67.109186 
L 118.172386 66.96 
L 498.109091 66.96 
L 498.109091 66.96 
" clip-path="url(#pbcc0e8ed03)" style="fill: none; stroke: #2ca02c; stroke-width: 1.5; stroke-linecap: square"/>
   </g>
   <g id="line2d_56">
    <path d="M 92.290909 369.36 
L 92.394681 94.05 
L 92.729058 82.08 
L 92.8213 76.41 
L 92.925072 69.48 
L 92.994253 69.48 
L 93.236388 66.96 
L 498.109091 66.96 
L 498.109091 66.96 
" clip-path="url(#pbcc0e8ed03)" style="fill: none; stroke: #d62728; stroke-width: 1.5; stroke-linecap: square"/>
   </g>
   <g id="line2d_57">
    <path d="M 92.290909 369.36 
L 92.371237 97.006154 
L 92.44009 93.129231 
L 92.554845 87.313846 
L 92.738452 80.529231 
L 92.899108 78.590769 
L 92.979437 78.590769 
L 93.163044 75.683077 
L 93.277799 74.713846 
L 93.828621 74.713846 
L 94.195836 69.867692 
L 94.459771 69.867692 
L 94.849937 67.929231 
L 96.204041 67.929231 
L 96.341747 66.96 
L 498.109091 66.96 
L 498.109091 66.96 
" clip-path="url(#pbcc0e8ed03)" style="fill: none; stroke: #9467bd; stroke-width: 1.5; stroke-linecap: square"/>
   </g>
   <g id="line2d_58">
    <path d="M 92.290909 369.36 
L 92.325311 68.013659 
L 92.921614 68.013659 
L 93.070689 66.96 
L 498.109091 66.96 
L 498.109091 66.96 
" clip-path="url(#pbcc0e8ed03)" style="fill: none; stroke: #8c564b; stroke-width: 1.5; stroke-linecap: square"/>
   </g>
   <g id="line2d_59">
    <path d="M 92.290909 369.36 
L 92.302365 66.96 
L 92.394013 66.96 
L 498.109091 66.96 
L 498.109091 66.96 
" clip-path="url(#pbcc0e8ed03)" style="fill: none; stroke: #e377c2; stroke-width: 1.5; stroke-linecap: square"/>
   </g>
   <g id="line2d_60">
    <path d="M 92.290909 369.36 
L 92.394223 108.96 
L 92.566414 83.76 
L 92.600852 83.76 
L 92.796001 78.16 
L 93.760267 68.826667 
L 95.114831 68.826667 
L 95.252583 67.893333 
L 96.262766 67.893333 
L 96.480874 66.96 
L 498.109091 66.96 
L 498.109091 66.96 
" clip-path="url(#pbcc0e8ed03)" style="fill: none; stroke: #7f7f7f; stroke-width: 1.5; stroke-linecap: square"/>
   </g>
   <g id="line2d_61">
    <path d="M 92.290909 369.36 
L 92.394293 128.656552 
L 92.474704 119.097931 
L 92.474704 119.097931 
L 92.77337 99.111724 
L 92.830805 99.111724 
L 92.945677 96.504828 
L 92.991625 96.504828 
L 93.17542 94.766897 
L 93.324753 94.766897 
L 93.830188 84.33931 
L 94.059931 84.33931 
L 94.289674 81.732414 
L 94.416033 81.732414 
L 94.680237 79.994483 
L 95.082288 79.994483 
L 95.231621 79.125517 
L 95.495825 78.256552 
L 95.610697 77.387586 
L 95.886388 77.387586 
L 96.185054 75.649655 
L 96.345875 75.649655 
L 96.656028 74.78069 
L 97.620949 74.78069 
L 98.206793 73.042759 
L 99.435919 73.042759 
L 99.814995 72.173793 
L 100.228533 72.173793 
L 101.101556 70.435862 
L 101.997554 70.435862 
L 102.411092 68.697931 
L 102.836117 67.828966 
L 116.436907 67.828966 
L 117.286957 66.96 
L 498.109091 66.96 
L 498.109091 66.96 
" clip-path="url(#pbcc0e8ed03)" style="fill: none; stroke: #bcbd22; stroke-width: 1.5; stroke-linecap: square"/>
   </g>
   <g id="line2d_62">
    <path d="M 92.290909 369.36 
L 92.383251 146.938378 
L 92.498678 138.181622 
L 92.694904 124.170811 
L 92.821873 119.500541 
L 93.36438 100.235676 
L 93.468264 100.235676 
L 93.641405 97.900541 
L 93.826088 92.646486 
L 94.126198 89.143784 
L 94.299339 83.305946 
L 94.414766 83.305946 
L 94.957272 80.970811 
L 95.211212 77.468108 
L 95.303553 77.468108 
L 95.707548 75.716757 
L 95.996115 75.716757 
L 96.319311 74.549189 
L 96.527079 74.549189 
L 96.804104 73.965405 
L 97.519751 73.965405 
L 97.704435 73.381622 
L 98.962589 73.381622 
L 99.60898 72.214054 
L 99.862919 72.214054 
L 100.139944 71.63027 
L 100.497767 71.63027 
L 100.80942 70.462703 
L 101.132616 69.878919 
L 101.905977 69.878919 
L 102.309971 69.295135 
L 106.523056 69.295135 
L 107.284874 68.711351 
L 141.970682 68.711351 
L 143.425062 68.127568 
L 167.849411 68.127568 
L 170.146408 67.543784 
L 318.273854 67.543784 
L 322.071401 66.96 
L 498.109091 66.96 
L 498.109091 66.96 
" clip-path="url(#pbcc0e8ed03)" style="fill: none; stroke: #17becf; stroke-width: 1.5; stroke-linecap: square"/>
   </g>
   <g id="line2d_63">
    <path d="M 92.290909 369.36 
L 497.703273 67.2624 
L 497.703273 67.2624 
" clip-path="url(#pbcc0e8ed03)" style="fill: none; stroke-dasharray: 5.55,2.4; stroke-dashoffset: 0; stroke: #00bfff; stroke-width: 1.5"/>
   </g>
   <g id="patch_3">
    <path d="M 72 384.48 
L 72 51.84 
" style="fill: none; stroke: #000000; stroke-width: 0.8; stroke-linejoin: miter; stroke-linecap: square"/>
   </g>
   <g id="patch_4">
    <path d="M 518.4 384.48 
L 518.4 51.84 
" style="fill: none; stroke: #000000; stroke-width: 0.8; stroke-linejoin: miter; stroke-linecap: square"/>
   </g>
   <g id="patch_5">
    <path d="M 72 384.48 
L 518.4 384.48 
" style="fill: none; stroke: #000000; stroke-width: 0.8; stroke-linejoin: miter; stroke-linecap: square"/>
   </g>
   <g id="patch_6">
    <path d="M 72 51.84 
L 518.4 51.84 
" style="fill: none; stroke: #000000; stroke-width: 0.8; stroke-linejoin: miter; stroke-linecap: square"/>
   </g>
   <g id="text_15">
    <!-- ROC curves for 50 taxon classification -->
    <g transform="translate(181.086563 32.402625)scale(0.12 -0.12)">
     <defs>
      <path id="DejaVuSans-4f" d="M 2522 4238 
Q 1834 4238 1429 3725 
Q 1025 3213 1025 2328 
Q 1025 1447 1429 934 
Q 1834 422 2522 422 
Q 3209 422 3611 934 
Q 4013 1447 4013 2328 
Q 4013 3213 3611 3725 
Q 3209 4238 2522 4238 
z
M 2522 4750 
Q 3503 4750 4090 4092 
Q 4678 3434 4678 2328 
Q 4678 1225 4090 567 
Q 3503 -91 2522 -91 
Q 1538 -91 948 565 
Q 359 1222 359 2328 
Q 359 3434 948 4092 
Q 1538 4750 2522 4750 
z
" transform="scale(0.015625)"/>
      <path id="DejaVuSans-43" d="M 4122 4306 
L 4122 3641 
Q 3803 3938 3442 4084 
Q 3081 4231 2675 4231 
Q 1875 4231 1450 3742 
Q 1025 3253 1025 2328 
Q 1025 1406 1450 917 
Q 1875 428 2675 428 
Q 3081 428 3442 575 
Q 3803 722 4122 1019 
L 4122 359 
Q 3791 134 3420 21 
Q 3050 -91 2638 -91 
Q 1578 -91 968 557 
Q 359 1206 359 2328 
Q 359 3453 968 4101 
Q 1578 4750 2638 4750 
Q 3056 4750 3426 4639 
Q 3797 4528 4122 4306 
z
" transform="scale(0.015625)"/>
      <path id="DejaVuSans-63" d="M 3122 3366 
L 3122 2828 
Q 2878 2963 2633 3030 
Q 2388 3097 2138 3097 
Q 1578 3097 1268 2742 
Q 959 2388 959 1747 
Q 959 1106 1268 751 
Q 1578 397 2138 397 
Q 2388 397 2633 464 
Q 2878 531 3122 666 
L 3122 134 
Q 2881 22 2623 -34 
Q 2366 -91 2075 -91 
Q 1284 -91 818 406 
Q 353 903 353 1747 
Q 353 2603 823 3093 
Q 1294 3584 2113 3584 
Q 2378 3584 2631 3529 
Q 2884 3475 3122 3366 
z
" transform="scale(0.015625)"/>
      <path id="DejaVuSans-35" d="M 691 4666 
L 3169 4666 
L 3169 4134 
L 1269 4134 
L 1269 2991 
Q 1406 3038 1543 3061 
Q 1681 3084 1819 3084 
Q 2600 3084 3056 2656 
Q 3513 2228 3513 1497 
Q 3513 744 3044 326 
Q 2575 -91 1722 -91 
Q 1428 -91 1123 -41 
Q 819 9 494 109 
L 494 744 
Q 775 591 1075 516 
Q 1375 441 1709 441 
Q 2250 441 2565 725 
Q 2881 1009 2881 1497 
Q 2881 1984 2565 2268 
Q 2250 2553 1709 2553 
Q 1456 2553 1204 2497 
Q 953 2441 691 2322 
L 691 4666 
z
" transform="scale(0.015625)"/>
      <path id="DejaVuSans-78" d="M 3513 3500 
L 2247 1797 
L 3578 0 
L 2900 0 
L 1881 1375 
L 863 0 
L 184 0 
L 1544 1831 
L 300 3500 
L 978 3500 
L 1906 2253 
L 2834 3500 
L 3513 3500 
z
" transform="scale(0.015625)"/>
      <path id="DejaVuSans-6e" d="M 3513 2113 
L 3513 0 
L 2938 0 
L 2938 2094 
Q 2938 2591 2744 2837 
Q 2550 3084 2163 3084 
Q 1697 3084 1428 2787 
Q 1159 2491 1159 1978 
L 1159 0 
L 581 0 
L 581 3500 
L 1159 3500 
L 1159 2956 
Q 1366 3272 1645 3428 
Q 1925 3584 2291 3584 
Q 2894 3584 3203 3211 
Q 3513 2838 3513 2113 
z
" transform="scale(0.015625)"/>
     </defs>
     <use xlink:href="#DejaVuSans-52"/>
     <use xlink:href="#DejaVuSans-4f" x="69.482422"/>
     <use xlink:href="#DejaVuSans-43" x="148.193359"/>
     <use xlink:href="#DejaVuSans-20" x="218.017578"/>
     <use xlink:href="#DejaVuSans-63" x="249.804688"/>
     <use xlink:href="#DejaVuSans-75" x="304.785156"/>
     <use xlink:href="#DejaVuSans-72" x="368.164062"/>
     <use xlink:href="#DejaVuSans-76" x="409.277344"/>
     <use xlink:href="#DejaVuSans-65" x="468.457031"/>
     <use xlink:href="#DejaVuSans-73" x="529.980469"/>
     <use xlink:href="#DejaVuSans-20" x="582.080078"/>
     <use xlink:href="#DejaVuSans-66" x="613.867188"/>
     <use xlink:href="#DejaVuSans-6f" x="649.072266"/>
     <use xlink:href="#DejaVuSans-72" x="710.253906"/>
     <use xlink:href="#DejaVuSans-20" x="751.367188"/>
     <use xlink:href="#DejaVuSans-35" x="783.154297"/>
     <use xlink:href="#DejaVuSans-30" x="846.777344"/>
     <use xlink:href="#DejaVuSans-20" x="910.400391"/>
     <use xlink:href="#DejaVuSans-74" x="942.1875"/>
     <use xlink:href="#DejaVuSans-61" x="981.396484"/>
     <use xlink:href="#DejaVuSans-78" x="1042.675781"/>
     <use xlink:href="#DejaVuSans-6f" x="1098.730469"/>
     <use xlink:href="#DejaVuSans-6e" x="1159.912109"/>
     <use xlink:href="#DejaVuSans-20" x="1223.291016"/>
     <use xlink:href="#DejaVuSans-63" x="1255.078125"/>
     <use xlink:href="#DejaVuSans-6c" x="1310.058594"/>
     <use xlink:href="#DejaVuSans-61" x="1337.841797"/>
     <use xlink:href="#DejaVuSans-73" x="1399.121094"/>
     <use xlink:href="#DejaVuSans-73" x="1451.220703"/>
     <use xlink:href="#DejaVuSans-69" x="1503.320312"/>
     <use xlink:href="#DejaVuSans-66" x="1531.103516"/>
     <use xlink:href="#DejaVuSans-69" x="1566.308594"/>
     <use xlink:href="#DejaVuSans-63" x="1594.091797"/>
     <use xlink:href="#DejaVuSans-61" x="1649.072266"/>
     <use xlink:href="#DejaVuSans-74" x="1710.351562"/>
     <use xlink:href="#DejaVuSans-69" x="1749.560547"/>
     <use xlink:href="#DejaVuSans-6f" x="1777.34375"/>
     <use xlink:href="#DejaVuSans-6e" x="1838.525391"/>
    </g>
    <!-- using Xception classification model -->
    <g transform="translate(189.377813 45.84)scale(0.12 -0.12)">
     <defs>
      <path id="DejaVuSans-67" d="M 2906 1791 
Q 2906 2416 2648 2759 
Q 2391 3103 1925 3103 
Q 1463 3103 1205 2759 
Q 947 2416 947 1791 
Q 947 1169 1205 825 
Q 1463 481 1925 481 
Q 2391 481 2648 825 
Q 2906 1169 2906 1791 
z
M 3481 434 
Q 3481 -459 3084 -895 
Q 2688 -1331 1869 -1331 
Q 1566 -1331 1297 -1286 
Q 1028 -1241 775 -1147 
L 775 -588 
Q 1028 -725 1275 -790 
Q 1522 -856 1778 -856 
Q 2344 -856 2625 -561 
Q 2906 -266 2906 331 
L 2906 616 
Q 2728 306 2450 153 
Q 2172 0 1784 0 
Q 1141 0 747 490 
Q 353 981 353 1791 
Q 353 2603 747 3093 
Q 1141 3584 1784 3584 
Q 2172 3584 2450 3431 
Q 2728 3278 2906 2969 
L 2906 3500 
L 3481 3500 
L 3481 434 
z
" transform="scale(0.015625)"/>
      <path id="DejaVuSans-58" d="M 403 4666 
L 1081 4666 
L 2241 2931 
L 3406 4666 
L 4084 4666 
L 2584 2425 
L 4184 0 
L 3506 0 
L 2194 1984 
L 872 0 
L 191 0 
L 1856 2491 
L 403 4666 
z
" transform="scale(0.015625)"/>
      <path id="DejaVuSans-6d" d="M 3328 2828 
Q 3544 3216 3844 3400 
Q 4144 3584 4550 3584 
Q 5097 3584 5394 3201 
Q 5691 2819 5691 2113 
L 5691 0 
L 5113 0 
L 5113 2094 
Q 5113 2597 4934 2840 
Q 4756 3084 4391 3084 
Q 3944 3084 3684 2787 
Q 3425 2491 3425 1978 
L 3425 0 
L 2847 0 
L 2847 2094 
Q 2847 2600 2669 2842 
Q 2491 3084 2119 3084 
Q 1678 3084 1418 2786 
Q 1159 2488 1159 1978 
L 1159 0 
L 581 0 
L 581 3500 
L 1159 3500 
L 1159 2956 
Q 1356 3278 1631 3431 
Q 1906 3584 2284 3584 
Q 2666 3584 2933 3390 
Q 3200 3197 3328 2828 
z
" transform="scale(0.015625)"/>
      <path id="DejaVuSans-64" d="M 2906 2969 
L 2906 4863 
L 3481 4863 
L 3481 0 
L 2906 0 
L 2906 525 
Q 2725 213 2448 61 
Q 2172 -91 1784 -91 
Q 1150 -91 751 415 
Q 353 922 353 1747 
Q 353 2572 751 3078 
Q 1150 3584 1784 3584 
Q 2172 3584 2448 3432 
Q 2725 3281 2906 2969 
z
M 947 1747 
Q 947 1113 1208 752 
Q 1469 391 1925 391 
Q 2381 391 2643 752 
Q 2906 1113 2906 1747 
Q 2906 2381 2643 2742 
Q 2381 3103 1925 3103 
Q 1469 3103 1208 2742 
Q 947 2381 947 1747 
z
" transform="scale(0.015625)"/>
     </defs>
     <use xlink:href="#DejaVuSans-75"/>
     <use xlink:href="#DejaVuSans-73" x="63.378906"/>
     <use xlink:href="#DejaVuSans-69" x="115.478516"/>
     <use xlink:href="#DejaVuSans-6e" x="143.261719"/>
     <use xlink:href="#DejaVuSans-67" x="206.640625"/>
     <use xlink:href="#DejaVuSans-20" x="270.117188"/>
     <use xlink:href="#DejaVuSans-58" x="301.904297"/>
     <use xlink:href="#DejaVuSans-63" x="370.410156"/>
     <use xlink:href="#DejaVuSans-65" x="425.390625"/>
     <use xlink:href="#DejaVuSans-70" x="486.914062"/>
     <use xlink:href="#DejaVuSans-74" x="550.390625"/>
     <use xlink:href="#DejaVuSans-69" x="589.599609"/>
     <use xlink:href="#DejaVuSans-6f" x="617.382812"/>
     <use xlink:href="#DejaVuSans-6e" x="678.564453"/>
     <use xlink:href="#DejaVuSans-20" x="741.943359"/>
     <use xlink:href="#DejaVuSans-63" x="773.730469"/>
     <use xlink:href="#DejaVuSans-6c" x="828.710938"/>
     <use xlink:href="#DejaVuSans-61" x="856.494141"/>
     <use xlink:href="#DejaVuSans-73" x="917.773438"/>
     <use xlink:href="#DejaVuSans-73" x="969.873047"/>
     <use xlink:href="#DejaVuSans-69" x="1021.972656"/>
     <use xlink:href="#DejaVuSans-66" x="1049.755859"/>
     <use xlink:href="#DejaVuSans-69" x="1084.960938"/>
     <use xlink:href="#DejaVuSans-63" x="1112.744141"/>
     <use xlink:href="#DejaVuSans-61" x="1167.724609"/>
     <use xlink:href="#DejaVuSans-74" x="1229.003906"/>
     <use xlink:href="#DejaVuSans-69" x="1268.212891"/>
     <use xlink:href="#DejaVuSans-6f" x="1295.996094"/>
     <use xlink:href="#DejaVuSans-6e" x="1357.177734"/>
     <use xlink:href="#DejaVuSans-20" x="1420.556641"/>
     <use xlink:href="#DejaVuSans-6d" x="1452.34375"/>
     <use xlink:href="#DejaVuSans-6f" x="1549.755859"/>
     <use xlink:href="#DejaVuSans-64" x="1610.9375"/>
     <use xlink:href="#DejaVuSans-65" x="1674.414062"/>
     <use xlink:href="#DejaVuSans-6c" x="1735.9375"/>
    </g>
   </g>
  </g>
 </g>
 <defs>
  <clipPath id="pbcc0e8ed03">
   <rect x="72" y="51.84" width="446.4" height="332.64"/>
  </clipPath>
 </defs>
</svg>
